<svg width="159" height="27" viewBox="0 0 159 27" fill="none" xmlns="http://www.w3.org/2000/svg">
<rect width="159" height="27" fill="white"/>
<path d="M27 0H0V27H27V0Z" fill="#0000FF"/>
<path d="M8.79444 16.9074C7.83103 16.9074 6.95956 16.5602 6.3406 15.9293C5.72163 15.2985 5.38074 14.4111 5.38074 13.4299C5.38074 12.4534 5.72146 11.5714 6.34018 10.9462C6.9585 10.3214 7.83019 9.97729 8.79444 9.97729C9.53959 9.97729 10.2258 10.2186 10.7792 10.6753L10.8654 10.7462L11.1236 10.1787H12.6964V16.6813H11.0622L10.8431 16.1565L10.7543 16.2284C10.2057 16.6725 9.52786 16.9074 8.79444 16.9074ZM9.10151 11.8331C8.20145 11.8331 7.52251 12.5219 7.52251 13.4354C7.52251 14.3517 8.20145 15.0432 9.10151 15.0432C10.002 15.0432 10.6812 14.3517 10.6812 13.4354C10.6812 12.5219 10.002 11.8331 9.10151 11.8331Z" fill="white"/>
<path d="M14.2032 16.7043H21.735V15.037H14.2032V15.8705V16.7043Z" fill="#00FFFF"/>
<path d="M42.372 17H44.928L41.556 8.6H39.288L35.988 17H38.472L38.94 15.644H41.916L42.372 17ZM41.352 13.832H39.504L40.416 11.228L41.352 13.832ZM51.9617 17L49.8017 13.58L51.8177 10.52H49.3817L48.4097 12.152L47.4737 10.52H45.0017L46.9937 13.64L44.8457 17H47.3177L48.3977 15.092L49.4657 17H51.9617ZM58.9422 13.7C58.9422 11.804 57.5022 10.316 55.4142 10.316C53.3742 10.316 51.8982 11.78 51.8982 13.76C51.8982 15.74 53.3862 17.216 55.4142 17.216C57.0342 17.216 58.3542 16.292 58.8102 14.816H56.5782C56.3742 15.2 55.9302 15.428 55.4142 15.428C54.7062 15.428 54.2382 15.044 54.0942 14.3H58.9062C58.9302 14.096 58.9422 13.904 58.9422 13.7ZM55.4142 12.068C56.0862 12.068 56.5542 12.416 56.7462 13.064H54.1302C54.3102 12.416 54.7662 12.068 55.4142 12.068ZM59.9577 17H62.1897V8.18H59.9577V17ZM69.2761 17.216C71.2321 17.216 72.6361 16.256 72.6361 14.42C72.6361 12.512 71.0281 12.092 69.7801 11.78C69.0001 11.576 68.3641 11.42 68.3641 10.94C68.3641 10.544 68.7601 10.364 69.1681 10.364C69.6481 10.364 70.0441 10.616 70.0441 11.156H72.3721C72.3721 9.44 71.2081 8.408 69.1921 8.408C67.2121 8.408 66.0001 9.356 66.0001 11.012C66.0001 12.92 67.5481 13.292 68.7601 13.592C69.5641 13.784 70.2241 13.94 70.2241 14.468C70.2241 14.924 69.7561 15.188 69.2761 15.188C68.7481 15.188 68.2801 14.888 68.2801 14.288H65.8921C65.8921 16.124 67.2241 17.216 69.2761 17.216ZM77.531 10.316C76.751 10.316 76.067 10.58 75.539 11.036L75.263 10.52H73.739V19.34H75.947V16.796C76.403 17.072 76.943 17.228 77.531 17.228C79.511 17.228 80.927 15.788 80.927 13.76C80.927 11.744 79.511 10.316 77.531 10.316ZM77.231 15.248C76.391 15.248 75.779 14.612 75.779 13.76C75.779 12.92 76.391 12.284 77.231 12.284C78.059 12.284 78.683 12.92 78.683 13.76C78.683 14.612 78.059 15.248 77.231 15.248ZM85.5661 10.496C84.7981 10.496 84.2461 10.712 83.7901 11.24L83.4421 10.52H81.9421V17H84.1741V13.712C84.1741 12.884 84.5101 12.536 85.2901 12.536H86.1661V10.496H85.5661ZM87.0166 9.716H89.2246V7.82H87.0166V9.716ZM87.0046 17H89.2366V10.52H87.0046V17ZM94.5494 10.34C93.7094 10.34 92.9894 10.652 92.5094 11.192L92.2094 10.52H90.6374V17H92.8694V13.544C92.8694 12.716 93.2654 12.236 93.9614 12.236C94.5254 12.236 94.8134 12.608 94.8134 13.364V17H97.0454V13.052C97.0454 11.408 96.0494 10.34 94.5494 10.34ZM103.568 10.52L103.28 11.072C102.728 10.604 102.02 10.316 101.24 10.316C99.3798 10.316 97.9998 11.732 97.9998 13.58C97.9998 15.452 99.3798 16.832 101.24 16.832C101.864 16.832 102.44 16.652 102.932 16.352V16.544C102.932 17.312 102.332 17.792 101.576 17.792C101.036 17.792 100.484 17.552 100.328 17.12H98.1798C98.4798 18.656 99.7638 19.58 101.6 19.58C103.736 19.58 105.068 18.32 105.068 16.292V10.532L103.568 10.52ZM101.612 14.996C100.796 14.996 100.22 14.408 100.22 13.58C100.22 12.764 100.808 12.164 101.612 12.164C102.416 12.164 102.992 12.764 102.992 13.58C102.992 14.408 102.416 14.996 101.612 14.996ZM113.153 13.7C113.153 11.804 111.713 10.316 109.625 10.316C107.585 10.316 106.109 11.78 106.109 13.76C106.109 15.74 107.597 17.216 109.625 17.216C111.245 17.216 112.565 16.292 113.021 14.816H110.789C110.585 15.2 110.141 15.428 109.625 15.428C108.917 15.428 108.449 15.044 108.305 14.3H113.117C113.141 14.096 113.153 13.904 113.153 13.7ZM109.625 12.068C110.297 12.068 110.765 12.416 110.957 13.064H108.341C108.521 12.416 108.977 12.068 109.625 12.068ZM117.793 10.496C117.025 10.496 116.473 10.712 116.017 11.24L115.669 10.52H114.169V17H116.401V13.712C116.401 12.884 116.737 12.536 117.517 12.536H118.393V10.496H117.793ZM127.631 8.6H120.743V10.688H123.023V17H125.351V10.688H127.631V8.6ZM134.306 13.7C134.306 11.804 132.866 10.316 130.778 10.316C128.738 10.316 127.262 11.78 127.262 13.76C127.262 15.74 128.75 17.216 130.778 17.216C132.398 17.216 133.717 16.292 134.174 14.816H131.942C131.738 15.2 131.294 15.428 130.778 15.428C130.07 15.428 129.602 15.044 129.458 14.3H134.27C134.294 14.096 134.306 13.904 134.306 13.7ZM130.778 12.068C131.45 12.068 131.918 12.416 132.11 13.064H129.494C129.674 12.416 130.13 12.068 130.778 12.068ZM138.525 17.216C140.349 17.216 141.741 16.028 141.993 14.276H139.797C139.617 14.852 139.125 15.224 138.525 15.224C137.745 15.224 137.181 14.612 137.181 13.76C137.181 12.92 137.745 12.32 138.525 12.32C139.113 12.32 139.605 12.668 139.785 13.196H141.969C141.717 11.468 140.361 10.328 138.537 10.328C136.437 10.328 134.949 11.756 134.949 13.76C134.949 15.764 136.449 17.216 138.525 17.216ZM146.91 10.34C146.262 10.34 145.662 10.568 145.182 10.952V8.18H142.95V17H145.182V13.544C145.182 12.716 145.602 12.236 146.274 12.236C146.862 12.236 147.126 12.62 147.126 13.364V17H149.358V13.1C149.358 11.42 148.398 10.34 146.91 10.34Z" fill="black"/>
</svg>
