<svg width="300" height="18" viewBox="0 0 300 18" fill="none" xmlns="http://www.w3.org/2000/svg">
<rect width="300" height="18" fill="#0000FF"/>
<path d="M12.372 13H14.928L11.556 4.6H9.288L5.988 13H8.472L8.94 11.644H11.916L12.372 13ZM11.352 9.832H9.504L10.416 7.228L11.352 9.832ZM21.9617 13L19.8017 9.58L21.8177 6.52H19.3817L18.4097 8.152L17.4737 6.52H15.0017L16.9937 9.64L14.8457 13H17.3177L18.3977 11.092L19.4657 13H21.9617ZM28.9422 9.7C28.9422 7.804 27.5022 6.316 25.4142 6.316C23.3742 6.316 21.8982 7.78 21.8982 9.76C21.8982 11.74 23.3862 13.216 25.4142 13.216C27.0342 13.216 28.3542 12.292 28.8102 10.816H26.5782C26.3742 11.2 25.9302 11.428 25.4142 11.428C24.7062 11.428 24.2382 11.044 24.0942 10.3H28.9062C28.9302 10.096 28.9422 9.904 28.9422 9.7ZM25.4142 8.068C26.0862 8.068 26.5542 8.416 26.7462 9.064H24.1302C24.3102 8.416 24.7662 8.068 25.4142 8.068ZM29.9577 13H32.1897V4.18H29.9577V13ZM39.2761 13.216C41.2321 13.216 42.6361 12.256 42.6361 10.42C42.6361 8.512 41.0281 8.092 39.7801 7.78C39.0001 7.576 38.3641 7.42 38.3641 6.94C38.3641 6.544 38.7601 6.364 39.1681 6.364C39.6481 6.364 40.0441 6.616 40.0441 7.156H42.3721C42.3721 5.44 41.2081 4.408 39.1921 4.408C37.2121 4.408 36.0001 5.356 36.0001 7.012C36.0001 8.92 37.5481 9.292 38.7601 9.592C39.5641 9.784 40.2241 9.94 40.2241 10.468C40.2241 10.924 39.7561 11.188 39.2761 11.188C38.7481 11.188 38.2801 10.888 38.2801 10.288H35.8921C35.8921 12.124 37.2241 13.216 39.2761 13.216ZM47.531 6.316C46.751 6.316 46.067 6.58 45.539 7.036L45.263 6.52H43.739V15.34H45.947V12.796C46.403 13.072 46.943 13.228 47.531 13.228C49.511 13.228 50.927 11.788 50.927 9.76C50.927 7.744 49.511 6.316 47.531 6.316ZM47.231 11.248C46.391 11.248 45.779 10.612 45.779 9.76C45.779 8.92 46.391 8.284 47.231 8.284C48.059 8.284 48.683 8.92 48.683 9.76C48.683 10.612 48.059 11.248 47.231 11.248ZM55.5661 6.496C54.7981 6.496 54.2461 6.712 53.7901 7.24L53.4421 6.52H51.9421V13H54.1741V9.712C54.1741 8.884 54.5101 8.536 55.2901 8.536H56.1661V6.496H55.5661ZM57.0166 5.716H59.2246V3.82H57.0166V5.716ZM57.0046 13H59.2366V6.52H57.0046V13ZM64.5494 6.34C63.7094 6.34 62.9894 6.652 62.5094 7.192L62.2094 6.52H60.6374V13H62.8694V9.544C62.8694 8.716 63.2654 8.236 63.9614 8.236C64.5254 8.236 64.8134 8.608 64.8134 9.364V13H67.0454V9.052C67.0454 7.408 66.0494 6.34 64.5494 6.34ZM73.5678 6.52L73.2798 7.072C72.7278 6.604 72.0198 6.316 71.2398 6.316C69.3798 6.316 67.9998 7.732 67.9998 9.58C67.9998 11.452 69.3798 12.832 71.2398 12.832C71.8638 12.832 72.4398 12.652 72.9318 12.352V12.544C72.9318 13.312 72.3318 13.792 71.5758 13.792C71.0358 13.792 70.4838 13.552 70.3278 13.12H68.1798C68.4798 14.656 69.7638 15.58 71.5998 15.58C73.7358 15.58 75.0678 14.32 75.0678 12.292V6.532L73.5678 6.52ZM71.6118 10.996C70.7958 10.996 70.2198 10.408 70.2198 9.58C70.2198 8.764 70.8078 8.164 71.6118 8.164C72.4158 8.164 72.9918 8.764 72.9918 9.58C72.9918 10.408 72.4158 10.996 71.6118 10.996ZM83.1532 9.7C83.1532 7.804 81.7132 6.316 79.6252 6.316C77.5852 6.316 76.1092 7.78 76.1092 9.76C76.1092 11.74 77.5972 13.216 79.6252 13.216C81.2452 13.216 82.5652 12.292 83.0212 10.816H80.7892C80.5852 11.2 80.1412 11.428 79.6252 11.428C78.9172 11.428 78.4492 11.044 78.3052 10.3H83.1172C83.1412 10.096 83.1532 9.904 83.1532 9.7ZM79.6252 8.068C80.2972 8.068 80.7652 8.416 80.9572 9.064H78.3412C78.5212 8.416 78.9772 8.068 79.6252 8.068ZM87.7927 6.496C87.0247 6.496 86.4727 6.712 86.0167 7.24L85.6687 6.52H84.1687V13H86.4007V9.712C86.4007 8.884 86.7367 8.536 87.5167 8.536H88.3927V6.496H87.7927ZM97.6313 4.6H90.7433V6.688H93.0233V13H95.3513V6.688H97.6313V4.6ZM104.306 9.7C104.306 7.804 102.866 6.316 100.778 6.316C98.7375 6.316 97.2615 7.78 97.2615 9.76C97.2615 11.74 98.7495 13.216 100.778 13.216C102.398 13.216 103.717 12.292 104.174 10.816H101.942C101.738 11.2 101.294 11.428 100.778 11.428C100.07 11.428 99.6015 11.044 99.4575 10.3H104.27C104.294 10.096 104.306 9.904 104.306 9.7ZM100.778 8.068C101.45 8.068 101.918 8.416 102.11 9.064H99.4935C99.6735 8.416 100.13 8.068 100.778 8.068ZM108.525 13.216C110.349 13.216 111.741 12.028 111.993 10.276H109.797C109.617 10.852 109.125 11.224 108.525 11.224C107.745 11.224 107.181 10.612 107.181 9.76C107.181 8.92 107.745 8.32 108.525 8.32C109.113 8.32 109.605 8.668 109.785 9.196H111.969C111.717 7.468 110.361 6.328 108.537 6.328C106.437 6.328 104.949 7.756 104.949 9.76C104.949 11.764 106.449 13.216 108.525 13.216ZM116.91 6.34C116.262 6.34 115.662 6.568 115.182 6.952V4.18H112.95V13H115.182V9.544C115.182 8.716 115.602 8.236 116.274 8.236C116.862 8.236 117.126 8.62 117.126 9.364V13H119.358V9.1C119.358 7.42 118.398 6.34 116.91 6.34Z" fill="white"/>
<path d="M268.117 15C266.295 15 265.018 14.1144 264.68 12.6238H266.745C266.954 13.0994 267.566 13.3134 268.096 13.3134C268.969 13.3134 269.578 12.7476 269.578 11.9379V11.5819L269.446 11.6654C268.941 11.9862 268.351 12.1557 267.742 12.1557C266.835 12.1557 266.006 11.8245 265.407 11.2234C264.807 10.6211 264.477 9.78578 264.477 8.87071C264.477 6.99731 265.881 5.58463 267.742 5.58463C268.499 5.58463 269.231 5.85325 269.802 6.34104L269.884 6.41135L270.202 5.79935H271.626V11.6738C271.626 13.7256 270.282 15 268.117 15ZM268.126 7.32347C267.247 7.32347 266.608 7.97409 266.608 8.87072C266.608 9.77193 267.246 10.4259 268.125 10.4259C269.002 10.4259 269.638 9.77193 269.638 8.87072C269.638 7.97409 269.002 7.32347 268.126 7.32347ZM239.511 14.754V5.79936H240.944L241.26 6.38073L241.341 6.311C241.895 5.83232 242.587 5.57917 243.343 5.57917C244.311 5.57917 245.187 5.92632 245.808 6.5566C246.43 7.18771 246.773 8.07887 246.773 9.06592C246.773 10.0536 246.43 10.946 245.808 11.579C245.187 12.2111 244.311 12.5596 243.343 12.5596C242.771 12.5596 242.221 12.4101 241.752 12.1268L241.622 12.0479V14.7541H239.511V14.754ZM243.034 7.44543C242.129 7.44543 241.447 8.1418 241.447 9.06551C241.447 9.9898 242.129 10.6866 243.034 10.6866C243.938 10.6866 244.621 9.9898 244.621 9.06551C244.621 8.1418 243.938 7.44543 243.034 7.44543ZM235.475 12.5524C233.76 12.5524 232.668 11.6944 232.605 10.3063H234.657C234.694 10.7504 235.017 11.0224 235.519 11.0224C235.877 11.0224 236.263 10.8331 236.263 10.4175C236.263 9.93142 235.613 9.82398 235.039 9.72909C233.904 9.54484 232.693 9.22143 232.693 7.70506C232.693 6.41363 233.783 5.57916 235.47 5.57916C237.082 5.57916 238.151 6.39833 238.222 7.67441H236.231C236.194 7.27979 235.905 7.04729 235.442 7.04729C235.013 7.04729 234.737 7.27479 234.737 7.62717C234.737 8.07903 235.299 8.17875 235.949 8.29416L235.958 8.29564L236.012 8.30528C237.056 8.49036 238.354 8.72061 238.354 10.3201C238.354 10.9792 238.084 11.5382 237.573 11.937C237.057 12.3396 236.332 12.5524 235.475 12.5524ZM221.901 12.5524C220.912 12.5524 220.009 12.199 219.356 11.5567C218.704 10.9153 218.345 10.0288 218.345 9.06044C218.345 7.04349 219.841 5.57958 221.901 5.57958C222.911 5.57958 223.827 5.93196 224.48 6.5717C225.12 7.19899 225.473 8.06225 225.473 9.00231C225.473 9.16663 225.461 9.33934 225.436 9.52805H220.428L220.448 9.63086C220.604 10.428 221.12 10.8671 221.901 10.8671C222.449 10.8671 222.916 10.6328 223.162 10.2379H225.293C224.802 11.6688 223.513 12.5524 221.901 12.5524ZM221.901 7.21727C221.189 7.21727 220.688 7.60577 220.49 8.31159L220.459 8.4207H223.399L223.366 8.30992C223.153 7.60535 222.632 7.21727 221.901 7.21727ZM276.328 12.5524C275.339 12.5524 274.435 12.199 273.783 11.5567C273.131 10.9153 272.772 10.0288 272.772 9.06044C272.772 7.04349 274.267 5.57958 276.328 5.57958C277.338 5.57958 278.254 5.93196 278.907 6.5717C279.547 7.19899 279.899 8.06225 279.899 9.00231C279.899 9.16663 279.887 9.33934 279.863 9.52805H274.855L274.875 9.63086C275.031 10.428 275.547 10.8671 276.328 10.8671C276.875 10.8671 277.343 10.6328 277.589 10.2379H279.72C279.228 11.6688 277.939 12.5524 276.328 12.5524ZM276.328 7.21727C275.616 7.21727 275.115 7.60577 274.917 8.31159L274.886 8.4207H277.826L277.793 8.30992C277.58 7.60535 277.059 7.21727 276.328 7.21727ZM206.43 12.5524C205.462 12.5524 204.586 12.2036 203.964 11.5698C203.343 10.9359 203 10.0444 203 9.05854C203 8.07737 203.342 7.19127 203.964 6.56307C204.585 5.93535 205.461 5.58963 206.43 5.58963C207.178 5.58963 207.868 5.83206 208.424 6.29088L208.511 6.36221L208.77 5.79196H210.35V12.3253H208.708L208.488 11.7981L208.399 11.8703C207.848 12.3165 207.167 12.5524 206.43 12.5524ZM206.738 7.45423C205.834 7.45423 205.152 8.1462 205.152 9.06401C205.152 9.98473 205.834 10.6794 206.738 10.6794C207.643 10.6794 208.325 9.98473 208.325 9.06401C208.325 8.1462 207.643 7.45423 206.738 7.45423ZM261.219 12.3329V8.64887C261.219 8.07713 261.052 7.39545 260.258 7.39545C259.494 7.39545 259.038 7.93465 259.038 8.83776V12.3329H256.9V5.79936H258.379L258.728 6.55951L258.816 6.46212C259.313 5.90681 260.04 5.60119 260.862 5.60119C262.377 5.60119 263.356 6.67225 263.356 8.32987V12.3329H261.219V12.3329ZM247.925 12.3329V5.79936H249.333L249.727 6.6124L249.812 6.51359C250.258 5.99724 250.807 5.76724 251.594 5.76724H252.119V7.70864H251.309C250.447 7.70864 250.063 8.1095 250.063 9.00863V12.3329H247.925V12.3329ZM281.088 12.3329V5.79936H282.496L282.89 6.6124L282.975 6.51359C283.421 5.99724 283.971 5.76724 284.757 5.76724H285.283V7.70864H284.472C283.611 7.70864 283.226 8.1095 283.226 9.00863V12.3329H281.088V12.3329ZM226.662 12.3329V3.37779H228.8V12.3329H226.662V12.3329ZM215.884 12.3329L214.732 10.2567L213.557 12.3329H211.213L213.382 8.93974L211.376 5.79936H213.719L214.736 7.57155L215.799 5.79936H218.105L216.084 8.87804L218.259 12.3329H215.884V12.3329ZM253.171 12.3324V5.79894H255.308V12.3324H253.171V12.3324ZM253.188 4.78856V3H255.29V4.78856H253.188Z" fill="white"/>
<path d="M286.716 12.3849H294.283V10.7097H286.716V11.5471V12.3849Z" fill="#00FFFF"/>
</svg>
