<svg width="144" height="18" viewBox="0 0 144 18" fill="none" xmlns="http://www.w3.org/2000/svg">
<rect width="144" height="18" fill="white"/>
<path d="M18 0H0V18H18V0Z" fill="#0000FF"/>
<path d="M5.86296 11.2716C5.22069 11.2716 4.63971 11.0401 4.22707 10.6196C3.81442 10.199 3.58716 9.60741 3.58716 8.95327C3.58716 8.30223 3.81431 7.71427 4.22679 7.29744C4.639 6.88093 5.22013 6.65153 5.86296 6.65153C6.35973 6.65153 6.81717 6.81239 7.18611 7.11683L7.24359 7.16417L7.4157 6.78578H8.46427V11.1209H7.37482L7.22876 10.771L7.16955 10.8189C6.80383 11.115 6.3519 11.2716 5.86296 11.2716ZM6.06768 7.88876C5.46764 7.88876 5.01501 8.3479 5.01501 8.9569C5.01501 9.56782 5.46764 10.0288 6.06768 10.0288C6.66803 10.0288 7.12083 9.56782 7.12083 8.9569C7.12083 8.3479 6.66803 7.88876 6.06768 7.88876Z" fill="white"/>
<path d="M9.46881 11.1362H14.49V10.0246H9.46881V10.5803V11.1362Z" fill="#00FFFF"/>
<path d="M30.372 13H32.928L29.556 4.6H27.288L23.988 13H26.472L26.94 11.644H29.916L30.372 13ZM29.352 9.832H27.504L28.416 7.228L29.352 9.832ZM39.9617 13L37.8017 9.58L39.8177 6.52H37.3817L36.4097 8.152L35.4737 6.52H33.0017L34.9937 9.64L32.8457 13H35.3177L36.3977 11.092L37.4657 13H39.9617ZM46.9422 9.7C46.9422 7.804 45.5022 6.316 43.4142 6.316C41.3742 6.316 39.8982 7.78 39.8982 9.76C39.8982 11.74 41.3862 13.216 43.4142 13.216C45.0342 13.216 46.3542 12.292 46.8102 10.816H44.5782C44.3742 11.2 43.9302 11.428 43.4142 11.428C42.7062 11.428 42.2382 11.044 42.0942 10.3H46.9062C46.9302 10.096 46.9422 9.904 46.9422 9.7ZM43.4142 8.068C44.0862 8.068 44.5542 8.416 44.7462 9.064H42.1302C42.3102 8.416 42.7662 8.068 43.4142 8.068ZM47.9577 13H50.1897V4.18H47.9577V13ZM57.2761 13.216C59.2321 13.216 60.6361 12.256 60.6361 10.42C60.6361 8.512 59.0281 8.092 57.7801 7.78C57.0001 7.576 56.3641 7.42 56.3641 6.94C56.3641 6.544 56.7601 6.364 57.1681 6.364C57.6481 6.364 58.0441 6.616 58.0441 7.156H60.3721C60.3721 5.44 59.2081 4.408 57.1921 4.408C55.2121 4.408 54.0001 5.356 54.0001 7.012C54.0001 8.92 55.5481 9.292 56.7601 9.592C57.5641 9.784 58.2241 9.94 58.2241 10.468C58.2241 10.924 57.7561 11.188 57.2761 11.188C56.7481 11.188 56.2801 10.888 56.2801 10.288H53.8921C53.8921 12.124 55.2241 13.216 57.2761 13.216ZM65.531 6.316C64.751 6.316 64.067 6.58 63.539 7.036L63.263 6.52H61.739V15.34H63.947V12.796C64.403 13.072 64.943 13.228 65.531 13.228C67.511 13.228 68.927 11.788 68.927 9.76C68.927 7.744 67.511 6.316 65.531 6.316ZM65.231 11.248C64.391 11.248 63.779 10.612 63.779 9.76C63.779 8.92 64.391 8.284 65.231 8.284C66.059 8.284 66.683 8.92 66.683 9.76C66.683 10.612 66.059 11.248 65.231 11.248ZM73.5661 6.496C72.7981 6.496 72.2461 6.712 71.7901 7.24L71.4421 6.52H69.9421V13H72.1741V9.712C72.1741 8.884 72.5101 8.536 73.2901 8.536H74.1661V6.496H73.5661ZM75.0166 5.716H77.2246V3.82H75.0166V5.716ZM75.0046 13H77.2366V6.52H75.0046V13ZM82.5494 6.34C81.7094 6.34 80.9894 6.652 80.5094 7.192L80.2094 6.52H78.6374V13H80.8694V9.544C80.8694 8.716 81.2654 8.236 81.9614 8.236C82.5254 8.236 82.8134 8.608 82.8134 9.364V13H85.0454V9.052C85.0454 7.408 84.0494 6.34 82.5494 6.34ZM91.5678 6.52L91.2798 7.072C90.7278 6.604 90.0198 6.316 89.2398 6.316C87.3798 6.316 85.9998 7.732 85.9998 9.58C85.9998 11.452 87.3798 12.832 89.2398 12.832C89.8638 12.832 90.4398 12.652 90.9318 12.352V12.544C90.9318 13.312 90.3318 13.792 89.5758 13.792C89.0358 13.792 88.4838 13.552 88.3278 13.12H86.1798C86.4798 14.656 87.7638 15.58 89.5998 15.58C91.7358 15.58 93.0678 14.32 93.0678 12.292V6.532L91.5678 6.52ZM89.6118 10.996C88.7958 10.996 88.2198 10.408 88.2198 9.58C88.2198 8.764 88.8078 8.164 89.6118 8.164C90.4158 8.164 90.9918 8.764 90.9918 9.58C90.9918 10.408 90.4158 10.996 89.6118 10.996ZM101.153 9.7C101.153 7.804 99.7132 6.316 97.6252 6.316C95.5852 6.316 94.1092 7.78 94.1092 9.76C94.1092 11.74 95.5972 13.216 97.6252 13.216C99.2452 13.216 100.565 12.292 101.021 10.816H98.7892C98.5852 11.2 98.1412 11.428 97.6252 11.428C96.9172 11.428 96.4492 11.044 96.3052 10.3H101.117C101.141 10.096 101.153 9.904 101.153 9.7ZM97.6252 8.068C98.2972 8.068 98.7652 8.416 98.9572 9.064H96.3412C96.5212 8.416 96.9772 8.068 97.6252 8.068ZM105.793 6.496C105.025 6.496 104.473 6.712 104.017 7.24L103.669 6.52H102.169V13H104.401V9.712C104.401 8.884 104.737 8.536 105.517 8.536H106.393V6.496H105.793ZM115.631 4.6H108.743V6.688H111.023V13H113.351V6.688H115.631V4.6ZM122.306 9.7C122.306 7.804 120.866 6.316 118.778 6.316C116.738 6.316 115.262 7.78 115.262 9.76C115.262 11.74 116.75 13.216 118.778 13.216C120.398 13.216 121.717 12.292 122.174 10.816H119.942C119.738 11.2 119.294 11.428 118.778 11.428C118.07 11.428 117.602 11.044 117.458 10.3H122.27C122.294 10.096 122.306 9.904 122.306 9.7ZM118.778 8.068C119.45 8.068 119.918 8.416 120.11 9.064H117.494C117.674 8.416 118.13 8.068 118.778 8.068ZM126.525 13.216C128.349 13.216 129.741 12.028 129.993 10.276H127.797C127.617 10.852 127.125 11.224 126.525 11.224C125.745 11.224 125.181 10.612 125.181 9.76C125.181 8.92 125.745 8.32 126.525 8.32C127.113 8.32 127.605 8.668 127.785 9.196H129.969C129.717 7.468 128.361 6.328 126.537 6.328C124.437 6.328 122.949 7.756 122.949 9.76C122.949 11.764 124.449 13.216 126.525 13.216ZM134.91 6.34C134.262 6.34 133.662 6.568 133.182 6.952V4.18H130.95V13H133.182V9.544C133.182 8.716 133.602 8.236 134.274 8.236C134.862 8.236 135.126 8.62 135.126 9.364V13H137.358V9.1C137.358 7.42 136.398 6.34 134.91 6.34Z" fill="black"/>
</svg>
